<svg xmlns="http://www.w3.org/2000/svg" version="1.1" xmlns:xlink="http://www.w3.org/1999/xlink" xmlns:svgjs="http://svgjs.dev/svgjs" width="1000" height="1000" viewBox="0 0 1000 1000"><rect width="1000" height="1000" fill="#dedede"></rect><g transform="matrix(0.7,0,0,0.7,149.69880492941115,408.8419740991409)"><svg viewBox="0 0 352 92" data-background-color="#dedede" preserveAspectRatio="xMidYMid meet" height="261" width="1000" xmlns="http://www.w3.org/2000/svg" xmlns:xlink="http://www.w3.org/1999/xlink"><g id="tight-bounds" transform="matrix(1,0,0,1,0.15145809263896126,-0.09667004444969507)"><svg viewBox="0 0 351.6970713397693 92.19334008889939" height="92.19334008889939" width="351.6970713397693"><g><svg viewBox="0 0 351.6970713397693 92.19334008889939" height="92.19334008889939" width="351.6970713397693"><g><svg viewBox="0 0 351.6970713397693 92.19334008889939" height="92.19334008889939" width="351.6970713397693"><g><svg viewBox="0 0 351.6970713397693 92.19334008889939" height="92.19334008889939" width="351.6970713397693"><g><svg viewBox="0 0 351.6970713397693 54.51269531249999" height="54.51269531249999" width="351.6970713397693"><g><svg><g></g><g></g></svg></g><g><svg><g><svg></svg></g><g></g></svg></g><g id="text-0"><svg viewBox="0 0 351.6970713397693 54.51269531249999" height="54.51269531249999" width="351.6970713397693"><g transform="matrix(1,0,0,1,0,0)"><svg width="295.6326171875" viewBox="1.7799999713897705 -33.08000183105469 182.6999969482422 33.69000244140625" height="54.51269531249999" data-palette-color="#374151"><path d="M30.88-19.63L30.96-19.58Q30.49-18.75 30.49-15.6L30.49-15.6 30.49-8.03Q30.49-4.59 26.93-2.05L26.93-2.05Q23.24 0.61 17.9 0.61L17.9 0.61Q10.47 0.61 6.05-4.05L6.05-4.05Q1.78-8.5 1.78-15.38L1.78-15.38Q1.78-22.71 6.13-27.59L6.13-27.59Q10.99-33.08 19.51-33.08L19.51-33.08Q25.2-33.08 28.52-30.88L28.52-30.88 28.13-23.68 27.93-23.63Q27.08-25.12 24.56-26.07L24.56-26.07Q22.17-26.98 19.54-26.98 16.92-26.98 14.95-26.15 12.99-25.32 11.62-23.78L11.62-23.78Q8.74-20.63 8.74-15.45L8.74-15.45Q8.74-10.94 11.28-8.2L11.28-8.2Q13.82-5.49 17.82-5.49L17.82-5.49Q22.24-5.49 23.78-7.79L23.78-7.79Q24.27-8.52 24.27-9.45L24.27-9.45 24.27-13.5 21.12-13.5Q18.58-13.5 18.36-13.06L18.36-13.06 18.29-13.09 18.07-19.46Q18.75-19.26 23.61-19.26L23.61-19.26 26.49-19.26Q29.17-19.26 30.88-19.63L30.88-19.63ZM42.16-7.03L39.87 0.2Q37.77 0 34.96 0L34.96 0 33.03 0 43.65-29.76Q44.36-31.76 44.36-32.09 44.36-32.42 44.33-32.5L44.33-32.5 44.36-32.54Q45.94-32.47 47.73-32.47L47.73-32.47Q49.19-32.47 51.24-32.52L51.24-32.52 51.27-32.47Q51.22-32.37 51.22-32.2L51.22-32.2Q51.22-31.74 51.95-29.74L51.95-29.74 62.79 0.07Q62.3 0.05 61.64 0.05L61.64 0.05Q61.64 0.05 60.37 0L60.37 0Q59.76 0 59.27 0L59.27 0 55.49 0 53.2-7.03 42.16-7.03ZM44.02-12.89L51.29-12.89 47.6-24.24 44.02-12.89ZM86.32-30.66L86.32-30.66 85.86-23.49 85.69-23.44Q83.88-26.15 79.54-26.95L79.54-26.95Q78.17-27.22 76.91-27.22 75.65-27.22 74.76-27 73.87-26.78 73.24-26.37L73.24-26.37Q71.89-25.49 71.89-24.07L71.89-24.07Q71.89-22.22 73.07-21.29L73.07-21.29Q74.53-20.17 77.92-19.71 81.32-19.26 83.37-18.48 85.42-17.7 86.74-16.5L86.74-16.5Q89.23-14.26 89.23-10.16L89.23-10.16Q89.23-4.79 85.18-1.88L85.18-1.88Q81.71 0.61 76.44 0.61L76.44 0.61Q72.19 0.61 68.04-1L68.04-1Q66.67-1.54 65.64-2.25L65.64-2.25 65.91-10.4 66.01-10.47Q69.04-5.25 75.95-5.25L75.95-5.25Q80.85-5.25 82.44-7.62L82.44-7.62Q82.98-8.42 82.98-9.41 82.98-10.4 82.66-11.05 82.34-11.69 81.61-12.16L81.61-12.16Q80.2-13.09 76.85-13.4 73.51-13.72 71.38-14.6 69.26-15.48 67.99-16.77L67.99-16.77Q65.69-19.12 65.69-23.32L65.69-23.32Q65.69-27.66 68.75-30.35L68.75-30.35Q71.85-33.08 77.11-33.08 82.37-33.08 86.32-30.66ZM95.38 0L95.38-32.64Q98.77-33.08 102.34-33.08L102.34-33.08Q108.98-33.08 112.43-29.97 115.89-26.86 115.89-20.65L115.89-20.65Q115.89-15.11 112.1-11.89L112.1-11.89Q108.56-8.86 103-8.86L103-8.86Q102.36-8.86 101.6-8.94L101.6-8.94 101.6 0 95.38 0ZM103.07-27.2L103.07-27.2Q102.34-27.2 101.6-27.15L101.6-27.15 101.6-14.31Q102.39-14.21 103.51-14.21 104.63-14.21 105.85-14.69 107.07-15.16 107.9-16.02L107.9-16.02Q109.64-17.8 109.64-20.7L109.64-20.7Q109.64-27.2 103.07-27.2ZM123.55-3.86Q121.33-5.98 120.05-8.96 118.76-11.94 118.76-15.49 118.76-19.04 119.96-22.22 121.16-25.39 123.38-27.81 125.6-30.22 128.75-31.65 131.9-33.08 135.81-33.08L135.81-33.08Q142.54-33.08 147.16-28.83L147.16-28.83Q152.09-24.29 152.09-16.58L152.09-16.58Q152.09-9.11 147.01-4.15L147.01-4.15Q143.89-1.1 139.57 0.05L139.57 0.05Q137.44 0.61 134.6 0.61 131.75 0.61 128.76-0.56 125.77-1.73 123.55-3.86ZM125.55-15.82L125.55-15.82Q125.55-13.55 126.31-11.65 127.07-9.74 128.41-8.37L128.41-8.37Q131.26-5.49 135.76-5.49L135.76-5.49Q140.03-5.49 142.62-8.25L142.62-8.25Q145.25-11.11 145.25-16.04L145.25-16.04Q145.25-20.68 142.74-23.78L142.74-23.78Q140.03-27.1 135.32-27.1L135.32-27.1Q130.75-27.1 128.07-23.73L128.07-23.73Q125.55-20.58 125.55-15.82ZM166.27 0.61L166.27 0.61Q162.32 0.61 158.83-0.02L158.83-0.02 158.83-32.69Q162.05-33.08 166.31-33.08 170.57-33.08 174.02-31.92 177.48-30.76 179.8-28.61L179.8-28.61Q184.48-24.32 184.48-16.58L184.48-16.58Q184.48-7.91 179.26-3.42L179.26-3.42Q174.57 0.61 166.27 0.61ZM165.17-27.1L165.17-5.35Q166.76-5.05 168.35-5.05 169.93-5.05 171.76-5.68 173.6-6.3 174.94-7.62L174.94-7.62Q177.82-10.4 177.82-15.72L177.82-15.72Q177.82-24.46 171.45-26.46L171.45-26.46Q169.35-27.12 166.59-27.12L166.59-27.12 165.93-27.12Q165.56-27.12 165.17-27.1L165.17-27.1Z" opacity="1" transform="matrix(1,0,0,1,0,0)" fill="#374151" class="undefined-text-0" data-fill-palette-color="primary"></path></svg></g><g><svg xmlns="http://www.w3.org/2000/svg" xmlns:xlink="http://www.w3.org/1999/xlink" version="1.1" x="308.502734375" y="0" viewBox="-250.70001220703125 140.98709106445312 63.399993896484375 80.01290893554688" enable-background="new -269 131 100 100" xml:space="preserve" height="54.51269531249999" width="43.1943369647693" class="icon-a-0" data-fill-palette-color="accent" id="a-0"><path d="M-200.1 163.7l-1-0.8c-1.2-1-3.1-0.6-3.8 0.8-0.3 0.7-0.6 7.7-0.6 8.9 0 0.2 0 0.6 0 0.7 0 1-0.9 1.8-1.9 1.6-0.8-0.1-1.4-0.9-1.4-1.7-0.1-12-3.7-20.4-10.5-26.7-4.1-3.8-9-7.2-10.5-4.6-0.4 0.7 0.2 2.2 0.9 4.1 1.4 4.3-2.9 11.2-9 18.1-5.7 6.5-12.8 14.5-12.8 26.4 0 16 15.1 30.5 31.7 30.5 16.6 0 31.7-14.5 31.7-30.5C-187.3 180.4-192.1 170.4-200.1 163.7zM-219 215.2c-7.2 0-13.1-5.9-13.1-13.1 0-3.6 1.4-6.8 3.8-9.2l7.2-8.6c1.1-1.3 3.2-1.3 4.3 0l7.2 8.6c2.3 2.4 3.8 5.6 3.8 9.2C-205.9 209.3-211.8 215.2-219 215.2z" fill="#374151" data-fill-palette-color="accent"></path></svg></g></svg></g></svg></g><g transform="matrix(1,0,0,1,67.17414062589594,67.38183437109375)"><svg viewBox="0 0 217.34879008797742 24.81150571780564" height="24.81150571780564" width="217.34879008797742"><g transform="matrix(1,0,0,1,0,0)"><svg width="217.34879008797742" viewBox="3.9000000953674316 -35.5 317.510009765625 36.25" height="24.81150571780564" data-palette-color="#374151"><path d="M3.9 0L3.9-35 20.6-35 20.6-32.35 6.7-32.35 6.7-20.65 15.25-20.65 14.1-17.9 6.7-17.9 6.7 0 3.9 0ZM36.7-9.2Q36.7-5 34.4-2.25 32.1 0.5 27.45 0.5L27.45 0.5Q22.8 0.5 20.42-2.27 18.05-5.05 18.05-9.2L18.05-9.2 18.05-15.8Q18.05-20.55 20.47-23.08 22.9-25.6 27.45-25.6L27.45-25.6Q31.8-25.6 34.25-22.98 36.7-20.35 36.7-15.8L36.7-15.8 36.7-9.2ZM33.9-15.8Q33.9-19.55 32.17-21.3 30.45-23.05 27.45-23.05L27.45-23.05Q24.35-23.05 22.6-21.3 20.85-19.55 20.85-15.8L20.85-15.8 20.85-8.7Q20.85-5.7 22.62-3.85 24.4-2 27.45-2L27.45-2Q30.55-2 32.22-3.83 33.9-5.65 33.9-8.7L33.9-8.7 33.9-15.8ZM41.4 0L41.4-25.05 44.2-25.05 44.05-23.3Q46.4-25.5 50.2-25.5L50.2-25.5Q51.55-25.5 53.9-25.05L53.9-25.05 53.15-22.5Q51.55-23 49.8-23L49.8-23Q47.5-23 45.85-22.15 44.2-21.3 44.2-19.6L44.2-19.6 44.2 0 41.4 0ZM89.99 0Q84.59 0.55 82.19 0.55L82.19 0.55Q76.94 0.55 73.84-1.4 70.74-3.35 70.74-8.45L70.74-8.45 70.74-12.6Q70.74-17.55 74.19-19.25L74.19-19.25Q75.84-20.1 78.39-20.1L78.39-20.1Q80.74-20.1 83.14-19.33 85.54-18.55 87.19-17.3L87.19-17.3Q87.19-20.05 85.59-21.68 83.99-23.3 79.44-23.3L79.44-23.3 79.59-25.45Q84.39-25.45 86.67-23.93 88.94-22.4 89.47-20.3 89.99-18.2 89.99-14.9L89.99-14.9 89.99 0ZM87.19-15.15Q85.14-16.1 82.82-16.8 80.49-17.5 78.54-17.5L78.54-17.5Q73.49-17.5 73.49-12.45L73.49-12.45 73.49-8.1Q73.49-4.85 75.74-3.38 77.99-1.9 82.14-1.9L82.14-1.9Q84.29-1.9 87.19-2.3L87.19-2.3 87.19-15.15ZM110.14-6.35Q110.44-4.1 112.39-2.98 114.34-1.85 116.74-1.85L116.74-1.85Q118.99-1.85 120.84-2.88 122.69-3.9 122.69-6.2L122.69-6.2Q122.69-7.7 121.81-8.68 120.94-9.65 119.64-10.25 118.34-10.85 116.14-11.55L116.14-11.55Q113.69-12.35 112.14-13.05 110.59-13.75 109.44-15.03 108.29-16.3 108.09-18.25L108.09-18.25 108.04-18.85Q108.04-20.5 108.96-22.08 109.89-23.65 111.81-24.65 113.74-25.65 116.64-25.65L116.64-25.65Q118.24-25.65 119.46-25.33 120.69-25 121.39-24.65 122.09-24.3 122.24-24.2L122.24-24.2 121.29-21.9Q121.14-22 120.56-22.3 119.99-22.6 118.94-22.9 117.89-23.2 116.64-23.2L116.64-23.2Q114.24-23.2 112.54-22.08 110.84-20.95 110.84-18.95L110.84-18.95Q110.84-17.05 112.39-16.05 113.94-15.05 117.14-14.05L117.14-14.05Q119.84-13.15 121.49-12.35 123.14-11.55 124.31-10.08 125.49-8.6 125.49-6.25L125.49-6.25Q125.49-3.25 123.26-1.25 121.04 0.75 116.74 0.75L116.74 0.75Q113.89 0.75 111.81-0.23 109.74-1.2 108.66-2.8 107.59-4.4 107.49-6.35L107.49-6.35 110.14-6.35ZM159.58 0L159.58-17.15Q159.58-20.15 158.01-21.55 156.43-22.95 153.93-22.95L153.93-22.95Q151.98-22.95 149.58-22.1L149.58-22.1 147.73-21.2Q148.58-19.5 148.58-17.3L148.58-17.3 148.58 0 145.83 0 145.83-17.15Q145.83-20.2 144.26-21.58 142.68-22.95 140.13-22.95L140.13-22.95Q138.58-22.95 136.93-22.48 135.28-22 133.93-21.25L133.93-21.25 133.93 0 131.13 0 131.13-25.05 133.93-25.05 133.68-23.45Q136.98-25.4 140.43-25.4L140.43-25.4Q142.23-25.4 143.81-24.8 145.38-24.2 146.48-23.05L146.48-23.05Q147.18-23.45 148.58-24.15L148.58-24.15Q151.53-25.5 154.28-25.5L154.28-25.5Q157.83-25.5 160.08-23.33 162.33-21.15 162.33-17.3L162.33-17.3 162.33 0 159.58 0ZM185.08 0Q179.68 0.55 177.28 0.55L177.28 0.55Q172.03 0.55 168.93-1.4 165.83-3.35 165.83-8.45L165.83-8.45 165.83-12.6Q165.83-17.55 169.28-19.25L169.28-19.25Q170.93-20.1 173.48-20.1L173.48-20.1Q175.83-20.1 178.23-19.33 180.63-18.55 182.28-17.3L182.28-17.3Q182.28-20.05 180.68-21.68 179.08-23.3 174.53-23.3L174.53-23.3 174.68-25.45Q179.48-25.45 181.76-23.93 184.03-22.4 184.56-20.3 185.08-18.2 185.08-14.9L185.08-14.9 185.08 0ZM182.28-15.15Q180.23-16.1 177.91-16.8 175.58-17.5 173.63-17.5L173.63-17.5Q168.58-17.5 168.58-12.45L168.58-12.45 168.58-8.1Q168.58-4.85 170.83-3.38 173.08-1.9 177.23-1.9L177.23-1.9Q179.38-1.9 182.28-2.3L182.28-2.3 182.28-15.15ZM189.93 0L189.93-25.05 192.73-25.05 192.58-23.3Q194.93-25.5 198.73-25.5L198.73-25.5Q200.08-25.5 202.43-25.05L202.43-25.05 201.68-22.5Q200.08-23 198.33-23L198.33-23Q196.03-23 194.38-22.15 192.73-21.3 192.73-19.6L192.73-19.6 192.73 0 189.93 0ZM210.43 0.65Q207.63-0.15 206.38-1.9 205.13-3.65 205.13-6.6L205.13-6.6 205.13-35 207.93-35 207.93-25.05 213.93-25.05 212.73-22.4 207.93-22.4 207.93-6.6Q207.93-2.6 211.23-1.5L211.23-1.5 210.43 0.65ZM233.57-1.75Q231.77-0.6 229.47 0 227.17 0.6 224.87 0.6L224.87 0.6Q221.17 0.6 219-1.23 216.82-3.05 216.82-6.7L216.82-6.7 216.82-16.95Q216.82-21 219.35-23.25 221.87-25.5 226.02-25.5L226.02-25.5Q230.17-25.5 232.5-23.28 234.82-21.05 234.82-17.1L234.82-17.1 234.82-10.6 219.62-9.75 219.62-6.7Q219.62-4.3 221.17-3.1 222.72-1.9 225.22-1.9L225.22-1.9Q228.72-1.9 232.47-3.9L232.47-3.9 233.57-1.75ZM232.02-17.45Q232.02-20.55 230.07-21.83 228.12-23.1 225.97-23.1L225.97-23.1Q223.22-23.1 221.42-21.6 219.62-20.1 219.62-16.9L219.62-16.9 219.62-12.5 232.02-13.1 232.02-17.45ZM239.82 0L239.82-25.05 242.62-25.05 242.47-23.3Q244.82-25.5 248.62-25.5L248.62-25.5Q249.97-25.5 252.32-25.05L252.32-25.05 251.57-22.5Q249.97-23 248.22-23L248.22-23Q245.92-23 244.27-22.15 242.62-21.3 242.62-19.6L242.62-19.6 242.62 0 239.82 0ZM271.22 0L271.22-35 274.02-35 274.02 0 271.22 0ZM283.61-32.15Q282.96-32.15 282.44-32.68 281.91-33.2 281.91-33.85L281.91-33.85Q281.91-34.5 282.41-35 282.91-35.5 283.61-35.5L283.61-35.5Q284.31-35.5 284.79-35.02 285.26-34.55 285.26-33.85L285.26-33.85Q285.26-33.15 284.76-32.65 284.26-32.15 283.61-32.15L283.61-32.15ZM282.16 0L282.16-25.05 284.96-25.05 284.96 0 282.16 0ZM293.16 0L293.16-27.45Q293.16-31.6 295.26-33.55 297.36-35.5 300.46-35.5L300.46-35.5Q301.41-35.5 302.31-35.35L302.31-35.35 301.86-32.9Q300.96-33 300.56-33L300.56-33Q295.96-33 295.96-27.45L295.96-27.45 295.96-25.05 301.66-25.05 300.46-22.4 295.96-22.4 295.96 0 293.16 0ZM320.16-1.75Q318.36-0.6 316.06 0 313.76 0.6 311.46 0.6L311.46 0.6Q307.76 0.6 305.58-1.23 303.41-3.05 303.41-6.7L303.41-6.7 303.41-16.95Q303.41-21 305.93-23.25 308.46-25.5 312.61-25.5L312.61-25.5Q316.76-25.5 319.08-23.28 321.41-21.05 321.41-17.1L321.41-17.1 321.41-10.6 306.21-9.75 306.21-6.7Q306.21-4.3 307.76-3.1 309.31-1.9 311.81-1.9L311.81-1.9Q315.31-1.9 319.06-3.9L319.06-3.9 320.16-1.75ZM318.61-17.45Q318.61-20.55 316.66-21.83 314.71-23.1 312.56-23.1L312.56-23.1Q309.81-23.1 308.01-21.6 306.21-20.1 306.21-16.9L306.21-16.9 306.21-12.5 318.61-13.1 318.61-17.45Z" opacity="1" transform="matrix(1,0,0,1,0,0)" fill="#374151" class="undefined-text-1" data-fill-palette-color="secondary" id="text-1"></path></svg></g></svg></g></svg></g></svg></g></svg></g><defs></defs></svg><rect width="351.6970713397693" height="92.19334008889939" fill="none" stroke="none" visibility="hidden"></rect></g></svg></g></svg>